<svg width="155" height="50" viewBox="0 0 155 50" fill="none" xmlns="http://www.w3.org/2000/svg">
<path fill-rule="evenodd" clip-rule="evenodd" d="M152.186 2.80428H2.81359V34.5146H152.186V2.80428ZM0 0V37.3188H155V0H0Z" fill="white"/>
<path d="M27.4594 18.4425C29.2241 19.4349 30.1065 20.943 30.1065 22.9667C30.1065 24.8541 29.4888 26.333 28.2535 27.4033C27.0182 28.454 25.2436 28.9794 22.93 28.9794H14.2241V8.54785H22.4006C24.7143 8.54785 26.479 9.04405 27.6947 10.0364C28.9104 11.0288 29.5182 12.4493 29.5182 14.2978C29.5182 16.0686 28.8319 17.4502 27.4594 18.4425ZM22.0476 13.5682H20.1064V16.3118L22.3711 16.2826C23.2142 16.1659 23.6358 15.7184 23.6358 14.94C23.6358 14.5119 23.479 14.1811 23.1653 13.9476C22.8711 13.6947 22.4986 13.5682 22.0476 13.5682ZM20.1064 23.9591H22.577C23.0476 23.9591 23.4397 23.8229 23.7535 23.5504C24.0672 23.278 24.2241 22.9278 24.2241 22.4997C24.2241 21.6824 23.7829 21.2057 22.9005 21.0695L20.1064 21.0403V23.9591Z" fill="white"/>
<path d="M37.9144 21.3322V23.6088H45.5616V28.9794H32.0321V8.54785H45.4145V13.8601H37.9144V16.0783H44.6792V21.3322H37.9144Z" fill="white"/>
<path d="M46.7391 8.54785H62.3274V14.2103H57.4745V28.9794H51.592V14.2103H46.7391V8.54785Z" fill="white"/>
<path d="M75.2629 17.888V8.54785H81.1453V28.9794H76.4394L69.9688 19.6393V28.9794H64.0864V8.54785H68.7923L75.2629 17.888Z" fill="white"/>
<path d="M89.9597 21.3322V23.6088H97.6072V28.9794H84.0773V8.54785H97.4595V13.8601H89.9597V16.0783H96.7246V21.3322H89.9597Z" fill="white"/>
<path d="M98.7842 8.54785H114.373V14.2103H109.519V28.9794H103.638V14.2103H98.7842V8.54785Z" fill="white"/>
<path d="M116.131 28.9794V8.54785H122.014V28.9794H116.131Z" fill="white"/>
<path d="M136.243 18.6468L142.45 28.9794H135.92L132.979 24.0758L130.009 28.9794H123.478L129.714 18.6468L123.626 8.54785H130.155L132.979 13.218L135.773 8.54785H142.303L136.243 18.6468Z" fill="white"/>
<path fill-rule="evenodd" clip-rule="evenodd" d="M147.538 37.3187L125.236 0H118.406L140.887 37.3187H147.538Z" fill="white"/>
</svg>
